<svg width="27" height="27" viewBox="0 0 27 27" fill="none" xmlns="http://www.w3.org/2000/svg">
<path d="M13.4956 1.00002C10.5291 0.997146 7.65853 2.07875 5.3983 4.05101C3.13807 6.02328 1.63592 8.75729 1.16103 11.7631C0.686133 14.769 1.26954 17.8502 2.80669 20.4545C4.34386 23.059 6.7343 25.0164 9.54966 25.9761C10.1728 26.0875 10.3703 25.712 10.3703 25.3732C10.3703 25.0668 10.3768 24.2177 10.3703 23.1447C6.89657 23.9179 6.17902 21.4565 6.17902 21.4565C5.95 20.6821 5.45869 20.0173 4.79386 19.5821C3.66055 18.7866 4.87853 18.8021 4.87853 18.8021C5.27422 18.858 5.65226 19.0057 5.98377 19.2345C6.31527 19.4631 6.59147 19.7665 6.79127 20.1215C6.96028 20.4377 7.18868 20.7162 7.46325 20.9411C7.73782 21.1661 8.0531 21.3329 8.39089 21.432C8.72867 21.5311 9.08223 21.5604 9.43113 21.5183C9.78002 21.4762 10.1173 21.3636 10.4235 21.1868C10.4811 20.539 10.7621 19.9336 11.2159 19.4796C8.44457 19.1543 5.52987 18.0556 5.52987 13.1437C5.51227 11.8704 5.97292 10.639 6.81624 9.70497C6.43411 8.60012 6.47759 7.38716 6.93782 6.31413C6.93782 6.31413 7.98754 5.96982 10.3703 7.62902C12.4168 7.05257 14.5767 7.05257 16.6231 7.62902C19.0113 5.97093 20.0524 6.31413 20.0524 6.31413C20.5127 7.38701 20.557 8.59976 20.1761 9.70497C21.0196 10.6396 21.4796 11.8721 21.4603 13.1459C21.4603 18.0712 18.5413 19.1532 15.7601 19.4685C16.0588 19.7767 16.2896 20.1469 16.437 20.5545C16.5844 20.962 16.6449 21.3973 16.6144 21.8309V25.3787C16.6144 25.7209 16.8163 26.0997 17.4503 25.9761C20.2664 25.0162 22.6572 23.058 24.1944 20.4527C25.7315 17.8474 26.3143 14.7651 25.8383 11.7587C25.3622 8.75229 23.8586 6.01821 21.5967 4.04666C19.3349 2.07512 16.463 0.995019 13.4956 1.00002Z" stroke="#54DAD0" stroke-width="1.8" stroke-linecap="round" stroke-linejoin="round"/>
</svg>
