<svg width="30" height="31" viewBox="0 0 30 31" fill="none" xmlns="http://www.w3.org/2000/svg">
<path d="M4.28566 7.70028C5.67797 7.70028 6.80667 6.57159 6.80667 5.17927C6.80667 3.78696 5.67797 2.65826 4.28566 2.65826C2.89334 2.65826 1.76465 3.78696 1.76465 5.17927C1.76465 6.57159 2.89334 7.70028 4.28566 7.70028Z" stroke="#54DAD0" stroke-width="1.61345" stroke-linejoin="round"/>
<path d="M1.76465 29.1288V11.4818H6.80667V29.1288H1.76465Z" stroke="#54DAD0" stroke-width="1.61345" stroke-linejoin="round"/>
<path d="M9.95801 11.4818V29.1288H15V20.4219C15 19.0448 16.2605 16.5238 19.9101 16.5238C21.9804 16.5238 23.1933 17.5892 23.1933 19.6751V29.1288H28.2353V19.6751C28.2353 18.0254 27.8415 15.9732 26.4781 14.2838C25.0362 12.4972 22.8066 11.4818 19.9101 11.4818C18.0043 11.4818 16.337 12.2572 15 13.2041V11.4818H9.95801Z" stroke="#54DAD0" stroke-width="1.61345" stroke-linejoin="round"/>
</svg>
