<svg width="160" height="45" viewBox="0 0 160 45" fill="none" xmlns="http://www.w3.org/2000/svg">
<g filter="url(#filter0_d_2_60)">
<path d="M23.3047 28.4727C24.5781 28.4727 25.6406 28.3516 26.4922 28.1094C27.3438 27.8594 28.0234 27.4844 28.5312 26.9844C29.0469 26.4844 29.4102 25.8594 29.6211 25.1094C29.832 24.3516 29.9375 23.4609 29.9375 22.4375V16.7656C29.9375 16.5625 29.9688 16.375 30.0312 16.2031C30.0938 16.0312 30.2227 15.9453 30.418 15.9453C30.5352 15.9453 30.625 15.9688 30.6875 16.0156C30.7578 16.0625 30.8086 16.125 30.8398 16.2031C30.8789 16.2812 30.9023 16.3711 30.9102 16.4727C30.9258 16.5664 30.9336 16.6641 30.9336 16.7656V22.4375C30.9336 23.6562 30.7734 24.6992 30.4531 25.5664C30.1406 26.4258 29.668 27.1289 29.0352 27.6758C28.4023 28.2227 27.6055 28.6211 26.6445 28.8711C25.6914 29.1211 24.5781 29.2461 23.3047 29.2461C22.0234 29.2461 20.9062 29.1211 19.9531 28.8711C19 28.6211 18.2031 28.2227 17.5625 27.6758C16.9219 27.1289 16.4414 26.4258 16.1211 25.5664C15.8086 24.6992 15.6523 23.6562 15.6523 22.4375V16.7656C15.6523 16.6641 15.6562 16.5664 15.6641 16.4727C15.6797 16.3711 15.707 16.2812 15.7461 16.2031C15.7852 16.125 15.8359 16.0625 15.8984 16.0156C15.9688 15.9688 16.0625 15.9453 16.1797 15.9453C16.375 15.9453 16.5 16.0312 16.5547 16.2031C16.6172 16.375 16.6484 16.5625 16.6484 16.7656V22.4375C16.6484 23.4609 16.7539 24.3516 16.9648 25.1094C17.1836 25.8594 17.5469 26.4844 18.0547 26.9844C18.5703 27.4844 19.2539 27.8594 20.1055 28.1094C20.957 28.3516 22.0234 28.4727 23.3047 28.4727ZM46.1094 20.5977C46.1094 21.3086 46.0195 21.9102 45.8398 22.4023C45.668 22.8867 45.4258 23.2891 45.1133 23.6094C44.8008 23.9297 44.4219 24.1797 43.9766 24.3594C43.5391 24.5312 43.0547 24.6602 42.5234 24.7461C41.9922 24.832 41.4219 24.8828 40.8125 24.8984C40.2109 24.9141 39.5898 24.9219 38.9492 24.9219H35.457V28.1094C35.457 28.3359 35.4258 28.543 35.3633 28.7305C35.3086 28.9102 35.1875 29 35 29C34.7734 29 34.625 28.9141 34.5547 28.7422C34.4922 28.5625 34.4609 28.3516 34.4609 28.1094V16.3789C34.4609 16.2617 34.4688 16.1758 34.4844 16.1211C34.5078 16.0586 34.543 16.0156 34.5898 15.9922C34.6367 15.9688 34.6953 15.957 34.7656 15.957C34.8438 15.9492 34.9414 15.9453 35.0586 15.9453H38.9492C39.6602 15.9453 40.3281 15.9648 40.9531 16.0039C41.5859 16.043 42.168 16.125 42.6992 16.25C43.2305 16.3672 43.707 16.5312 44.1289 16.7422C44.5508 16.9531 44.9062 17.2344 45.1953 17.5859C45.4922 17.9297 45.7188 18.3477 45.875 18.8398C46.0312 19.332 46.1094 19.918 46.1094 20.5977ZM45.1133 20.5977C45.1133 19.7852 44.9883 19.125 44.7383 18.6172C44.4961 18.1094 44.1211 17.7148 43.6133 17.4336C43.1133 17.1523 42.4766 16.9648 41.7031 16.8711C40.9297 16.7695 40.0117 16.7188 38.9492 16.7188H35.457V24.1953H38.9492C40.0117 24.1953 40.9297 24.1641 41.7031 24.1016C42.4844 24.0312 43.125 23.875 43.625 23.6328C44.1328 23.3828 44.5078 23.0195 44.75 22.543C44.9922 22.0664 45.1133 21.418 45.1133 20.5977ZM56.7383 28.4727C57.918 28.4727 59.043 28.3945 60.1133 28.2383C61.1836 28.082 62.2617 27.875 63.3477 27.6172V22.7188H57.3711C57.2773 22.7188 57.1797 22.7188 57.0781 22.7188C56.9844 22.7109 56.8945 22.6953 56.8086 22.6719C56.7305 22.6406 56.6641 22.5977 56.6094 22.543C56.5625 22.4883 56.5391 22.4102 56.5391 22.3086C56.5391 22.207 56.5625 22.1289 56.6094 22.0742C56.6641 22.0195 56.7305 21.9805 56.8086 21.957C56.8867 21.9258 56.9727 21.9102 57.0664 21.9102C57.168 21.9023 57.2695 21.8984 57.3711 21.8984H63.3477C63.6758 21.8984 63.8984 21.9609 64.0156 22.0859C64.1328 22.2109 64.1914 22.4219 64.1914 22.7188V27.6172C64.1914 27.8594 64.1016 28.0469 63.9219 28.1797C63.7422 28.3047 63.5508 28.3867 63.3477 28.4258C62.1914 28.6523 61.0703 28.8438 59.9844 29C58.8984 29.1641 57.8164 29.2461 56.7383 29.2461C55.2852 29.2461 54.0078 29.1211 52.9062 28.8711C51.8125 28.6211 50.8984 28.2266 50.1641 27.6875C49.4297 27.1406 48.875 26.4414 48.5 25.5898C48.1328 24.7305 47.9492 23.6914 47.9492 22.4727C47.9492 21.2539 48.1328 20.2188 48.5 19.3672C48.875 18.5078 49.4297 17.8086 50.1641 17.2695C50.8984 16.7227 51.8125 16.3242 52.9062 16.0742C54.0078 15.8242 55.2852 15.6992 56.7383 15.6992C57.7539 15.6992 58.7383 15.793 59.6914 15.9805C60.6445 16.1602 61.6133 16.4531 62.5977 16.8594C62.7227 16.9141 62.8125 16.9844 62.8672 17.0703C62.9219 17.1484 62.9492 17.2266 62.9492 17.3047C62.9492 17.3984 62.9141 17.4805 62.8438 17.5508C62.7734 17.6211 62.6836 17.6562 62.5742 17.6562C62.543 17.6562 62.4688 17.6367 62.3516 17.5977C61.4531 17.2227 60.5234 16.9414 59.5625 16.7539C58.6016 16.5664 57.6602 16.4727 56.7383 16.4727C55.3477 16.4727 54.1602 16.5898 53.1758 16.8242C52.1914 17.0508 51.3828 17.4102 50.75 17.9023C50.125 18.3867 49.668 19.0078 49.3789 19.7656C49.0898 20.5156 48.9453 21.418 48.9453 22.4727C48.9453 23.5273 49.0898 24.4336 49.3789 25.1914C49.668 25.9414 50.125 26.5625 50.75 27.0547C51.3828 27.5391 52.1914 27.8984 53.1758 28.1328C54.1602 28.3594 55.3477 28.4727 56.7383 28.4727ZM78.9102 20C78.9102 20.4766 78.8398 20.8945 78.6992 21.2539C78.5586 21.6133 78.3672 21.9258 78.125 22.1914C77.8906 22.457 77.6094 22.6797 77.2812 22.8594C76.9609 23.0391 76.6172 23.1875 76.25 23.3047C75.8828 23.4141 75.5 23.4961 75.1016 23.5508C74.7109 23.6055 74.3281 23.6406 73.9531 23.6562L78.2656 28.1914C78.3359 28.2617 78.3828 28.3359 78.4062 28.4141C78.4375 28.4844 78.457 28.5508 78.4648 28.6133C78.4648 28.7227 78.4258 28.8164 78.3477 28.8945C78.2773 28.9648 78.1836 29 78.0664 29C77.9805 29 77.8867 28.9805 77.7852 28.9414C77.6914 28.9023 77.5977 28.8281 77.5039 28.7188L72.8047 23.7031H68.4219V28.1094C68.4219 28.2266 68.4141 28.3398 68.3984 28.4492C68.3906 28.5508 68.3711 28.6445 68.3398 28.7305C68.3086 28.8086 68.2617 28.875 68.1992 28.9297C68.1445 28.9766 68.0703 29 67.9766 29C67.75 29 67.6016 28.9141 67.5312 28.7422C67.4609 28.5625 67.4258 28.3516 67.4258 28.1094V16.3789C67.4258 16.2617 67.4258 16.1758 67.4258 16.1211C67.4336 16.0586 67.4492 16.0156 67.4727 15.9922C67.4961 15.9688 67.5352 15.957 67.5898 15.957C67.6523 15.9492 67.7422 15.9453 67.8594 15.9453H71.2578C71.9844 15.9453 72.6758 15.9531 73.332 15.9688C73.9961 15.9844 74.6094 16.0352 75.1719 16.1211C75.7422 16.1992 76.2578 16.3242 76.7188 16.4961C77.1797 16.6602 77.5703 16.8945 77.8906 17.1992C78.2188 17.4961 78.4688 17.8711 78.6406 18.3242C78.8203 18.7773 78.9102 19.3359 78.9102 20ZM77.9141 20C77.9141 19.2266 77.7695 18.6211 77.4805 18.1836C77.1992 17.7383 76.7773 17.4102 76.2148 17.1992C75.6523 16.9805 74.957 16.8477 74.1289 16.8008C73.3008 16.7461 72.3438 16.7188 71.2578 16.7188H68.4219V22.9297H72.8164C73.4961 22.9297 74.1445 22.8984 74.7617 22.8359C75.3789 22.7734 75.918 22.6406 76.3789 22.4375C76.8477 22.2266 77.2188 21.9297 77.4922 21.5469C77.7734 21.1641 77.9141 20.6484 77.9141 20ZM87.5469 16.543C87.6719 16.3164 87.7695 16.1602 87.8398 16.0742C87.9102 15.9883 88.0156 15.9453 88.1562 15.9453C88.2656 15.9453 88.3594 15.9883 88.4375 16.0742C88.5234 16.1523 88.6328 16.3086 88.7656 16.543L95.2344 28.2148C95.3203 28.3711 95.3633 28.5234 95.3633 28.6719C95.3633 28.8125 95.3242 28.9219 95.2461 29C95.168 29.0781 95.0742 29.1172 94.9648 29.1172C94.8555 29.1172 94.7461 29.0781 94.6367 29C94.5352 28.9297 94.4297 28.7969 94.3203 28.6016L92.3281 24.9922H83.9844L81.9688 28.6484C81.8828 28.8125 81.7812 28.9297 81.6641 29C81.5547 29.0781 81.4453 29.1172 81.3359 29.1172C81.2031 29.1172 81.1055 29.0703 81.043 28.9766C80.9805 28.8828 80.9492 28.7578 80.9492 28.6016C80.9492 28.5391 80.9609 28.4766 80.9844 28.4141C81.0156 28.3516 81.0508 28.2812 81.0898 28.2031L87.5469 16.543ZM91.9883 24.3008L88.1562 17.3047L84.3242 24.3008H91.9883ZM114.207 22.4492C114.207 23.6992 114.043 24.7422 113.715 25.5781C113.387 26.4141 112.898 27.0859 112.25 27.5938C111.602 28.1016 110.793 28.4648 109.824 28.6836C108.863 28.8945 107.746 29 106.473 29H98.4102C98.293 29 98.2031 29 98.1406 29C98.0859 28.9922 98.043 28.9766 98.0117 28.9531C97.9805 28.9219 97.9609 28.8789 97.9531 28.8242C97.9531 28.7695 97.9531 28.6914 97.9531 28.5898V16.3789C97.9531 16.2617 97.9531 16.1758 97.9531 16.1211C97.9609 16.0586 97.9805 16.0156 98.0117 15.9922C98.043 15.9688 98.0898 15.957 98.1523 15.957C98.2227 15.9492 98.3164 15.9453 98.4336 15.9453H106.473C107.746 15.9453 108.863 16.0547 109.824 16.2734C110.793 16.4922 111.602 16.8594 112.25 17.375C112.898 17.8828 113.387 18.5508 113.715 19.3789C114.043 20.207 114.207 21.2305 114.207 22.4492ZM113.211 22.4492C113.211 21.4414 113.098 20.5781 112.871 19.8594C112.645 19.1328 112.27 18.5391 111.746 18.0781C111.223 17.6094 110.531 17.2656 109.672 17.0469C108.812 16.8281 107.746 16.7188 106.473 16.7188H98.9492V28.2266H106.473C107.746 28.2266 108.812 28.1172 109.672 27.8984C110.531 27.6797 111.223 27.3398 111.746 26.8789C112.27 26.4102 112.645 25.8125 112.871 25.0859C113.098 24.3516 113.211 23.4727 113.211 22.4492ZM129.559 28.5898C129.559 28.707 129.539 28.793 129.5 28.8477C129.461 28.9023 129.406 28.9414 129.336 28.9648C129.273 28.9883 129.195 29 129.102 29C129.008 29 128.902 29 128.785 29H117.84C117.762 29 117.703 28.9961 117.664 28.9883C117.625 28.9805 117.594 28.9609 117.57 28.9297C117.555 28.8984 117.543 28.8594 117.535 28.8125C117.535 28.7578 117.535 28.6836 117.535 28.5898V16.4961C117.535 16.3789 117.535 16.2852 117.535 16.2148C117.543 16.1445 117.559 16.0898 117.582 16.0508C117.605 16.0117 117.645 15.9844 117.699 15.9688C117.762 15.9531 117.852 15.9453 117.969 15.9453H128.668C128.785 15.9453 128.895 15.9453 128.996 15.9453C129.098 15.9453 129.188 15.957 129.266 15.9805C129.352 16.0039 129.418 16.043 129.465 16.0977C129.512 16.1523 129.535 16.2383 129.535 16.3555C129.535 16.4492 129.512 16.5234 129.465 16.5781C129.418 16.625 129.352 16.6602 129.266 16.6836C129.188 16.707 129.098 16.7188 128.996 16.7188C128.895 16.7188 128.785 16.7188 128.668 16.7188H118.531V21.8516H128.609C128.781 21.8516 128.926 21.875 129.043 21.9219C129.16 21.9688 129.219 22.0703 129.219 22.2266C129.219 22.3984 129.168 22.5117 129.066 22.5664C128.973 22.6211 128.848 22.6484 128.691 22.6484H118.531V28.2266H128.691C128.809 28.2266 128.918 28.2266 129.02 28.2266C129.121 28.2266 129.211 28.2383 129.289 28.2617C129.375 28.2852 129.441 28.3242 129.488 28.3789C129.535 28.4258 129.559 28.4961 129.559 28.5898ZM144.277 20C144.277 20.4766 144.207 20.8945 144.066 21.2539C143.926 21.6133 143.734 21.9258 143.492 22.1914C143.258 22.457 142.977 22.6797 142.648 22.8594C142.328 23.0391 141.984 23.1875 141.617 23.3047C141.25 23.4141 140.867 23.4961 140.469 23.5508C140.078 23.6055 139.695 23.6406 139.32 23.6562L143.633 28.1914C143.703 28.2617 143.75 28.3359 143.773 28.4141C143.805 28.4844 143.824 28.5508 143.832 28.6133C143.832 28.7227 143.793 28.8164 143.715 28.8945C143.645 28.9648 143.551 29 143.434 29C143.348 29 143.254 28.9805 143.152 28.9414C143.059 28.9023 142.965 28.8281 142.871 28.7188L138.172 23.7031H133.789V28.1094C133.789 28.2266 133.781 28.3398 133.766 28.4492C133.758 28.5508 133.738 28.6445 133.707 28.7305C133.676 28.8086 133.629 28.875 133.566 28.9297C133.512 28.9766 133.438 29 133.344 29C133.117 29 132.969 28.9141 132.898 28.7422C132.828 28.5625 132.793 28.3516 132.793 28.1094V16.3789C132.793 16.2617 132.793 16.1758 132.793 16.1211C132.801 16.0586 132.816 16.0156 132.84 15.9922C132.863 15.9688 132.902 15.957 132.957 15.957C133.02 15.9492 133.109 15.9453 133.227 15.9453H136.625C137.352 15.9453 138.043 15.9531 138.699 15.9688C139.363 15.9844 139.977 16.0352 140.539 16.1211C141.109 16.1992 141.625 16.3242 142.086 16.4961C142.547 16.6602 142.938 16.8945 143.258 17.1992C143.586 17.4961 143.836 17.8711 144.008 18.3242C144.188 18.7773 144.277 19.3359 144.277 20ZM143.281 20C143.281 19.2266 143.137 18.6211 142.848 18.1836C142.566 17.7383 142.145 17.4102 141.582 17.1992C141.02 16.9805 140.324 16.8477 139.496 16.8008C138.668 16.7461 137.711 16.7188 136.625 16.7188H133.789V22.9297H138.184C138.863 22.9297 139.512 22.8984 140.129 22.8359C140.746 22.7734 141.285 22.6406 141.746 22.4375C142.215 22.2266 142.586 21.9297 142.859 21.5469C143.141 21.1641 143.281 20.6484 143.281 20Z" fill="#2E69D3"/>
</g>
<defs>
<filter id="filter0_d_2_60" x="0.652344" y="0.699219" width="158.625" height="43.5469" filterUnits="userSpaceOnUse" color-interpolation-filters="sRGB">
<feFlood flood-opacity="0" result="BackgroundImageFix"/>
<feColorMatrix in="SourceAlpha" type="matrix" values="0 0 0 0 0 0 0 0 0 0 0 0 0 0 0 0 0 0 127 0" result="hardAlpha"/>
<feOffset/>
<feGaussianBlur stdDeviation="7.5"/>
<feComposite in2="hardAlpha" operator="out"/>
<feColorMatrix type="matrix" values="0 0 0 0 0.345312 0 0 0 0 0.551105 0 0 0 0 0.920833 0 0 0 1 0"/>
<feBlend mode="normal" in2="BackgroundImageFix" result="effect1_dropShadow_2_60"/>
<feBlend mode="normal" in="SourceGraphic" in2="effect1_dropShadow_2_60" result="shape"/>
</filter>
</defs>
</svg>
